{"title":"Narnia.2010.BRrip.Hindi.720p.6CH-Abhinav4u","uid":6336420,"size":1937733854,"categoryP":"video","categoryS":"hd___movies","magnet":"?xt=urn:btih:91349fff325be40e13eca7d6a8e3a7dea2e3baef&amp;dn=Narnia.2010.BRrip.Hindi.720p.6CH-Abhinav4u&amp;tr=udp%3A%2F%2Ftracker.openbittorrent.com%3A80&amp;tr=udp%3A%2F%2Fopen.demonii.com%3A1337&amp;tr=udp%3A%2F%2Ftracker.coppersurfer.tk%3A6969&amp;tr=udp%3A%2F%2Fexodus.desync.com%3A6969","seeders":0,"leechers":1,"uploader":"Abhinav4u","files":7,"time":1303483029,"description":"Format                           : Matroska\nFile size                        : 1.78 GiB\nDuration                         : 1h 48mn\nOverall bit rate                 : 2 365 Kbps\nMovie name                       : By.Abhinav4u\n\nVideo\nID                               : 2\nFormat                           : AVC\nFormat/Info                      : Advanced Video Codec\nFormat profile                   : &lt;a class=&quot;__cf_email__&quot; href=&quot;/cdn-cgi/l/email-protection&quot; data-cfemail=&quot;f0bd91999eb0bcc5dec1&quot;&gt;[email&amp;#160;protected]&lt;/a&gt;&lt;script cf-hash='f9e31' type=&quot;text/javascript&quot;&gt;\n/* &lt;![CDATA[ */!function(){try{var t=&quot;currentScript&quot;in document?document.currentScript:function(){for(var t=document.getElementsByTagName(&quot;script&quot;),e=t.length;e--;)if(t[e].getAttribute(&quot;cf-hash&quot;))return t[e]}();if(t&amp;&amp;t.previousSibling){var e,r,n,i,c=t.previousSibling,a=c.getAttribute(&quot;data-cfemail&quot;);if(a){for(e=&quot;&quot;,r=parseInt(a.substr(0,2),16),n=2;a.length-n;n+=2)i=parseInt(a.substr(n,2),16)^r,e+=String.fromCharCode(i);e=document.createTextNode(e),c.parentNode.replaceChild(e,c)}}}catch(u){}}();/* ]]&gt; */&lt;/script&gt;\nFormat settings, CABAC           : Yes\nFormat settings, ReFrames        : 2 frames\nMuxing mode                      : Header stripping\nCodec ID                         : V_MPEG4/ISO/AVC\nDuration                         : 1h 48mn\nBit rate                         : 1 934 Kbps\nWidth                            : 1 280 pixels\nHeight                           : 720 pixels\nDisplay aspect ratio             : 16:9\nFrame rate                       : 25.000 fps\nColor space                      : YUV\nChroma subsampling               : 4:2:0\nBit depth                        : 8 bits\nScan type                        : Progressive\nBits/(Pixel*Frame)               : 0.084\nStream size                      : 1.46 GiB (82%)\nTitle                            : Abhinav4u\n\nAudio\nID                               : 1\nFormat                           : AC-3\nFormat/Info                      : Audio Coding 3\nMode extension                   : CM (complete main)\nMuxing mode                      : Header stripping\nCodec ID                         : A_AC3\nDuration                         : 1h 48mn\nBit rate mode                    : Constant\nBit rate                         : 384 Kbps\nChannel(s)                       : 6 channels\nChannel positions                : Front: L C R, Side: L R, LFE\nSampling rate                    : 48.0 KHz\nBit depth                        : 16 bits\nCompression mode                 : Lossy\nDelay relative to video          : 10ms\nStream size                      : 297 MiB (16%)\nTitle                            : By Abhinav\nLanguage                         : Hindi\n\n","torrent":{"xt":"urn:btih:91349fff325be40e13eca7d6a8e3a7dea2e3baef","amp;dn":"Narnia.2010.BRrip.Hindi.720p.6CH-Abhinav4u","amp;tr":["udp%3A%2F%2Ftracker.openbittorrent.com%3A80","udp%3A%2F%2Fopen.demonii.com%3A1337","udp%3A%2F%2Ftracker.coppersurfer.tk%3A6969","udp%3A%2F%2Fexodus.desync.com%3A6969"],"infoHash":"91349fff325be40e13eca7d6a8e3a7dea2e3baef","infoHashBuffer":{"type":"Buffer","data":[145,52,159,255,50,91,228,14,19,236,167,214,168,227,167,222,162,227,186,239]},"announce":[],"urlList":[]}}